<?xml version="1.0" encoding="UTF-8"?><svg id="uuid-3fb2d61d-d8eb-4033-b708-8b147f661d9c" xmlns="http://www.w3.org/2000/svg" viewBox="0 0 936 936"><defs><style>.uuid-09556132-0819-40e8-8c76-02f1b090dbe3{fill:#e6aa5c;}.uuid-0e4e18e6-c0a0-428e-867d-9b71e438bd76{fill:#00309e;}</style></defs><g id="uuid-3b8c4da6-cb3a-4e1b-825b-839a2dbdd2f0"><rect class="uuid-0e4e18e6-c0a0-428e-867d-9b71e438bd76" x=".5" y=".5" width="935" height="935" rx="99.5" ry="99.5"/><path d="m836,1c54.59,0,99,44.41,99,99v736c0,54.59-44.41,99-99,99H100c-54.59,0-99-44.41-99-99V100C1,45.41,45.41,1,100,1h736m0-1H100C44.77,0,0,44.77,0,100v736c0,55.23,44.77,100,100,100h736c55.23,0,100-44.77,100-100V100c0-55.23-44.77-100-100-100h0Z"/><path class="uuid-09556132-0819-40e8-8c76-02f1b090dbe3" d="m132.74,489.19l20.04,22.78c-12.75,10.93-18.22,22.78-18.22,38.26,0,39.17,45.55,81.08,116.61,81.08,48.29,0,91.1-23.69,112.97-61.95,14.58-25.51,15.49-63.77,15.49-118.44V110.2c0-24.6-4.56-32.8-31.89-36.44v-27.33h148.5v27.33c-27.33,3.64-32.8,11.84-32.8,36.44v357.13c0,148.5-81.08,231.4-211.36,231.4-100.21,0-159.43-41-204.98-140.3l85.64-69.24Z"/><path class="uuid-09556132-0819-40e8-8c76-02f1b090dbe3" d="m501.69,500.2c0-23.36,18.94-42.3,42.3-42.3s42.3,18.94,42.3,42.3-18.94,42.3-42.3,42.3-42.3-18.94-42.3-42.3Zm35.25,267.92v112.81c0,15.6-12.6,28.2-28.2,28.2s-28.2-12.6-28.2-28.2v-196.62l-25.21,41.95c-8.02,13.31-25.38,17.63-38.69,9.61s-17.63-25.38-9.61-38.69l51.38-85.49c15.33-25.47,42.83-41.07,72.53-41.07h26.17c29.7,0,57.2,15.6,72.53,41.07l39.57,65.83c-14.19,15.51-25.21,33.93-32.26,54.2-1.67-1.59-3.08-3.44-4.32-5.55l-25.21-41.86v196.62c0,15.6-12.6,28.2-28.2,28.2s-28.2-12.6-28.2-28.2v-112.81h-14.1Zm246.77-112.81c70.09,0,126.91,56.82,126.91,126.91s-56.82,126.91-126.91,126.91-126.91-56.82-126.91-126.91,56.82-126.91,126.91-126.91Zm0,211.51c11.68,0,21.15-9.47,21.15-21.15s-9.47-21.15-21.15-21.15-21.15,9.47-21.15,21.15,9.47,21.15,21.15,21.15Zm-56.4-125.5v5.64c0,7.76,6.35,14.1,14.1,14.1s14.1-6.35,14.1-14.1v-5.64c0-4.67,3.79-8.46,8.46-8.46h35.69c6.79,0,12.25,5.46,12.25,12.25,0,4.58-2.56,8.72-6.52,10.84l-28.2,14.81c-4.67,2.47-7.58,7.23-7.58,12.51v13.04c0,7.76,6.35,14.1,14.1,14.1s14.1-6.35,14.1-14.1v-4.49l20.71-10.84c13.31-6.96,21.59-20.8,21.59-35.78,0-22.39-18.15-40.45-40.45-40.45h-35.69c-20.27,0-36.66,16.39-36.66,36.66v-.09Z"/></g></svg>